# xmcd CD database file
#
# Track frame offsets:
#	150
#	13525
#	27689
#	42806
#	57320
#	70960
#	84368
#	99440
#	112720
#	126854
#	141570
#	154946
#	170090
#	183140
#	196297
#	209813
#	225285
#	239177
#	253727
#	267753
#
# Disc length: 3767 seconds
#
# Revision: 0
# Processed by: cddbd v1.4PL0 Copyright (c) Steve Scherf et al.
# Submitted via: CDex 1.50
#
DISCID=1f0eb514
DTITLE=Billie Holiday - Solitude
DYEAR=1998
DGENRE=Jazz
TTITLE0=Don't Explain
TTITLE1=On The Sunny Side Of The Street
TTITLE2=Lover Come Back To Me
TTITLE3=As Time Goes By
TTITLE4=My Old Flame
TTITLE5=I'll Get By
TTITLE6=Lover Man (Oh, Where Can You Be?)
TTITLE7=St. Louis Blues
TTITLE8=The Man I Love
TTITLE9=Solitude
TTITLE10=God Bless The Child
TTITLE11=Love Me Or Leave Me
TTITLE12=Falling In Love Again
TTITLE13=I Gotta Right To Sing The Blues
TTITLE14=Swing! Brother, Swings!
TTITLE15=Yesterdays
TTITLE16=All of Me
TTITLE17=Gloomy Sunday
TTITLE18=Easy Living
TTITLE19=Strange Fruit
EXTD=YEAR: 1998
EXTT0=
EXTT1=
EXTT2=
EXTT3=
EXTT4=
EXTT5=
EXTT6=
EXTT7=
EXTT8=
EXTT9=
EXTT10=
EXTT11=
EXTT12=
EXTT13=
EXTT14=
EXTT15=
EXTT16=
EXTT17=
EXTT18=
EXTT19=
PLAYORDER=
